<svg width="62" height="62" viewBox="0 0 62 62" fill="none" xmlns="http://www.w3.org/2000/svg">
<path d="M43.9182 54.25C44.6033 54.25 45.2604 53.9778 45.7449 53.4933C46.2293 53.0089 46.5015 52.3518 46.5015 51.6666V37.8458C46.5015 36.6652 47.3178 35.6655 48.3796 35.1566C50.5779 34.1079 52.3352 32.3163 53.3412 30.0981C54.3472 27.8799 54.5374 25.3776 53.878 23.0329C53.2187 20.6881 51.7523 18.6517 49.7376 17.2829C47.7229 15.9141 45.2895 15.3009 42.8668 15.5516C41.869 13.2324 40.2133 11.2563 38.1046 9.8679C35.9958 8.47946 33.5263 7.7395 31.0015 7.7395C28.4767 7.7395 26.0072 8.47946 23.8985 9.8679C21.7897 11.2563 20.134 13.2324 19.1363 15.5516C16.7146 15.3027 14.2828 15.9167 12.2696 17.2854C10.2564 18.6542 8.79107 20.6897 8.132 23.0332C7.47292 25.3768 7.66241 27.8777 8.66706 30.0952C9.6717 32.3126 11.427 34.1042 13.6234 35.154C14.6852 35.6655 15.5015 36.6652 15.5015 37.8432V51.6666C15.5015 52.3518 15.7737 53.0089 16.2582 53.4933C16.7426 53.9778 17.3997 54.25 18.0848 54.25H43.9182Z" stroke="#259F00" stroke-width="5" stroke-linecap="round" stroke-linejoin="round"/>
<path d="M15.5 43.9167H46.5" stroke="#259F00" stroke-width="5" stroke-linecap="round" stroke-linejoin="round"/>
</svg>
