<svg width="40" height="40" viewBox="0 0 40 40" fill="none" xmlns="http://www.w3.org/2000/svg">
<path d="M29.3254 21.28C29.9506 21.9052 30.7986 22.2565 31.6829 22.2565C32.5671 22.2565 33.4151 21.9052 34.0404 21.28C34.6656 20.6547 35.0169 19.8067 35.0169 18.9225C35.0169 18.0383 34.6656 17.1902 34.0404 16.565L31.0937 13.62C31.7189 14.245 32.5669 14.5961 33.451 14.5959C33.8887 14.5958 34.3222 14.5095 34.7266 14.3419C35.131 14.1744 35.4984 13.9287 35.8079 13.6192C36.1173 13.3096 36.3628 12.942 36.5303 12.5376C36.6977 12.1331 36.7839 11.6997 36.7838 11.2619C36.7837 10.8242 36.6974 10.3907 36.5298 9.9863C36.3622 9.5819 36.1166 9.21447 35.807 8.90499L31.0937 4.19166C30.4687 3.56641 29.6209 3.21506 28.7368 3.2149C27.8527 3.21475 27.0048 3.5658 26.3795 4.19082C25.7543 4.81585 25.4029 5.66366 25.4028 6.54773C25.4026 7.43181 25.7537 8.27974 26.3787 8.90499L23.4337 5.95832C23.1241 5.64873 22.7566 5.40315 22.3521 5.2356C21.9476 5.06805 21.514 4.98182 21.0762 4.98182C20.6384 4.98182 20.2048 5.06805 19.8003 5.2356C19.3958 5.40315 19.0283 5.64873 18.7187 5.95832C18.4091 6.26792 18.1635 6.63545 17.996 7.03995C17.8284 7.44445 17.7422 7.878 17.7422 8.31582C17.7422 8.75365 17.8284 9.18719 17.996 9.59169C18.1635 9.99619 18.4091 10.3637 18.7187 10.6733L29.3254 21.28Z" stroke="#259F00" stroke-width="3" stroke-linecap="round" stroke-linejoin="round"/>
<path d="M4.16797 35.8333L6.5013 33.5" stroke="#259F00" stroke-width="3" stroke-linecap="round" stroke-linejoin="round"/>
<path d="M33.5 6.50002L35.8333 4.16669" stroke="#259F00" stroke-width="3" stroke-linecap="round" stroke-linejoin="round"/>
<path d="M8.90493 35.8083C9.52996 36.4336 10.3778 36.7849 11.2618 36.7851C11.6996 36.7851 12.1331 36.699 12.5375 36.5315C12.942 36.3641 13.3095 36.1186 13.6191 35.8091C13.9287 35.4997 14.1743 35.1322 14.3419 34.7278C14.5095 34.3234 14.5958 33.89 14.5958 33.4522C14.5959 33.0145 14.5098 32.581 14.3423 32.1765C14.1749 31.7721 13.9294 31.4046 13.6199 31.095L16.5649 34.0416C17.1902 34.6669 18.0382 35.0182 18.9224 35.0182C19.8067 35.0182 20.6547 34.6669 21.2799 34.0416C21.9052 33.4164 22.2564 32.5684 22.2564 31.6841C22.2564 30.7999 21.9052 29.9519 21.2799 29.3266L10.6733 18.72C10.3637 18.4104 9.99613 18.1648 9.59163 17.9973C9.18713 17.8297 8.75359 17.7435 8.31576 17.7435C7.87793 17.7435 7.44439 17.8297 7.03989 17.9973C6.63539 18.1648 6.26785 18.4104 5.95826 18.72C5.64867 19.0296 5.40309 19.3971 5.23554 19.8016C5.06799 20.2061 4.98175 20.6396 4.98175 21.0775C4.98175 21.5153 5.06799 21.9488 5.23554 22.3533C5.40309 22.7578 5.64867 23.1254 5.95826 23.435L8.90493 26.38C8.27968 25.755 7.43175 25.4039 6.54767 25.4041C5.6636 25.4042 4.81579 25.7556 4.19076 26.3808C3.56574 27.0061 3.21469 27.854 3.21484 28.7381C3.215 29.6221 3.56635 30.47 4.1916 31.095L8.90493 35.8083Z" stroke="#259F00" stroke-width="3" stroke-linecap="round" stroke-linejoin="round"/>
<path d="M16 24L24 16" stroke="#259F00" stroke-width="3" stroke-linecap="round" stroke-linejoin="round"/>
</svg>
