<svg width="55" height="55" viewBox="0 0 55 55" fill="none" xmlns="http://www.w3.org/2000/svg">
<circle cx="27.5" cy="27.5" r="27.5" fill="#EDF7EE"/>
<path d="M31.5159 37.8332C29.0506 39.0978 26.2148 39.4404 23.5193 38.7991C20.8239 38.1578 18.4461 36.5749 16.8145 34.3356C15.1828 32.0963 14.4046 29.3479 14.6201 26.5856C14.8356 23.8233 16.0306 21.2288 17.9898 19.2696C19.949 17.3105 22.5435 16.1155 25.3058 15.9C28.0681 15.6845 30.8165 16.4627 33.0558 18.0943C35.2951 19.7259 36.878 22.1037 37.5193 24.7992C38.1605 27.4946 37.818 30.3305 36.5534 32.7957L39.1367 40.4166L31.5159 37.8332Z" stroke="#259F00" stroke-width="2.5" stroke-linecap="round" stroke-linejoin="round"/>
<path d="M22.4492 23.6252C22.7529 22.762 23.3523 22.0341 24.1412 21.5704C24.9302 21.1067 25.8578 20.9372 26.7597 21.0919C27.6617 21.2466 28.4798 21.7155 29.0691 22.4156C29.6584 23.1157 29.981 24.0018 29.9796 24.9169C29.9796 27.5002 26.1046 28.7919 26.1046 28.7919" stroke="#259F00" stroke-width="2.5" stroke-linecap="round" stroke-linejoin="round"/>
<path d="M26.207 33.9585H26.2197" stroke="#259F00" stroke-width="2.5" stroke-linecap="round" stroke-linejoin="round"/>
</svg>
