<svg width="24" height="24" viewBox="0 0 24 24" fill="none" xmlns="http://www.w3.org/2000/svg">
<path d="M23.001 9.71047C23.0505 8.27913 22.7374 6.85849 22.091 5.58047C21.6524 5.05607 21.0437 4.70218 20.371 4.58047C17.5885 4.328 14.7945 4.22452 12.001 4.27047C9.21765 4.22243 6.43371 4.32257 3.661 4.57047C3.11282 4.67019 2.60552 4.92731 2.201 5.31047C1.301 6.14047 1.201 7.56047 1.101 8.76047C0.955916 10.918 0.955916 13.0829 1.101 15.2405C1.12993 15.9159 1.2305 16.5863 1.401 17.2405C1.52158 17.7455 1.76553 18.2128 2.111 18.6005C2.51827 19.0039 3.03739 19.2757 3.601 19.3805C5.75692 19.6466 7.92922 19.7569 10.101 19.7105C13.601 19.7605 16.671 19.7105 20.301 19.4305C20.8785 19.3321 21.4122 19.06 21.831 18.6505C22.111 18.3704 22.3201 18.0276 22.441 17.6505C22.7986 16.5531 22.9743 15.4046 22.961 14.2505C23.001 13.6905 23.001 10.3105 23.001 9.71047ZM9.741 14.8505V8.66047L15.661 11.7705C14.001 12.6905 11.811 13.7305 9.741 14.8505Z" fill="#259F00"/>
</svg>
