<svg width="93" height="46" viewBox="0 0 93 46" fill="none" xmlns="http://www.w3.org/2000/svg">
<path d="M55.232 20V9.57H59.614C60.202 9.57 60.7107 9.682 61.14 9.906C61.5787 10.1207 61.9147 10.424 62.148 10.816C62.3907 11.208 62.512 11.6653 62.512 12.188C62.512 12.7293 62.3767 13.21 62.106 13.63C61.8447 14.0407 61.4667 14.3533 60.972 14.568L60.958 14.232C61.3687 14.3813 61.7187 14.5913 62.008 14.862C62.3067 15.1327 62.5353 15.45 62.694 15.814C62.8527 16.1687 62.932 16.5513 62.932 16.962C62.932 17.8953 62.6333 18.6373 62.036 19.188C61.448 19.7293 60.6453 20 59.628 20H55.232ZM56.352 18.95H59.628C60.2907 18.95 60.818 18.7773 61.21 18.432C61.6113 18.0773 61.812 17.592 61.812 16.976C61.812 16.3693 61.6113 15.8887 61.21 15.534C60.818 15.17 60.2907 14.988 59.628 14.988H56.352V18.95ZM56.352 13.98H59.53C60.09 13.98 60.538 13.8167 60.874 13.49C61.2193 13.1633 61.392 12.7433 61.392 12.23C61.392 11.7073 61.2193 11.3107 60.874 11.04C60.538 10.76 60.09 10.62 59.53 10.62H56.352V13.98ZM64.785 20V12.496H65.835V20H64.785ZM64.785 11.11V9.57H65.835V11.11H64.785ZM70.8543 20.084C70.1823 20.084 69.6643 19.888 69.3003 19.496C68.9363 19.104 68.7542 18.544 68.7542 17.816V13.546H67.3682V12.496H67.7183C68.0356 12.496 68.2876 12.3933 68.4743 12.188C68.6609 11.9733 68.7542 11.7073 68.7542 11.39V10.76H69.8043V12.496H71.4563V13.546H69.8043V17.816C69.8043 18.068 69.8416 18.292 69.9163 18.488C69.9909 18.6747 70.1169 18.824 70.2943 18.936C70.4809 19.048 70.7283 19.104 71.0363 19.104C71.1109 19.104 71.1996 19.0993 71.3023 19.09C71.4049 19.0807 71.4936 19.0713 71.5683 19.062V20C71.4563 20.028 71.3303 20.0467 71.1903 20.056C71.0503 20.0747 70.9383 20.084 70.8543 20.084ZM76.5545 20.168C75.8545 20.168 75.2199 20 74.6505 19.664C74.0905 19.3187 73.6472 18.8473 73.3205 18.25C72.9939 17.6527 72.8305 16.976 72.8305 16.22C72.8305 15.464 72.9892 14.7967 73.3065 14.218C73.6239 13.63 74.0532 13.168 74.5945 12.832C75.1452 12.496 75.7612 12.328 76.4425 12.328C76.9839 12.328 77.4645 12.4307 77.8845 12.636C78.3139 12.832 78.6779 13.1027 78.9765 13.448C79.2752 13.784 79.5039 14.1667 79.6625 14.596C79.8212 15.016 79.9005 15.45 79.9005 15.898C79.9005 15.9913 79.8959 16.0987 79.8865 16.22C79.8772 16.332 79.8632 16.4487 79.8445 16.57H73.5025V15.59H79.2425L78.7385 16.01C78.8225 15.4967 78.7619 15.0393 78.5565 14.638C78.3605 14.2273 78.0759 13.9053 77.7025 13.672C77.3292 13.4293 76.9092 13.308 76.4425 13.308C75.9759 13.308 75.5419 13.4293 75.1405 13.672C74.7485 13.9147 74.4405 14.2553 74.2165 14.694C73.9925 15.1233 73.9039 15.6367 73.9505 16.234C73.9039 16.8313 73.9972 17.354 74.2305 17.802C74.4732 18.2407 74.7999 18.5813 75.2105 18.824C75.6305 19.0667 76.0785 19.188 76.5545 19.188C77.1052 19.188 77.5672 19.0573 77.9405 18.796C78.3139 18.5347 78.6172 18.208 78.8505 17.816L79.7465 18.292C79.5972 18.628 79.3685 18.9407 79.0605 19.23C78.7525 19.51 78.3839 19.7387 77.9545 19.916C77.5345 20.084 77.0679 20.168 76.5545 20.168ZM55.232 38V27.57H56.212L60.132 33.254H59.586L63.492 27.57H64.472V38H63.352V29.082L63.716 29.222L59.88 34.78H59.824L56.002 29.222L56.352 29.082V38H55.232ZM70.2951 38.168C69.5858 38.168 68.9418 38 68.3631 37.664C67.7845 37.3187 67.3225 36.852 66.9771 36.264C66.6411 35.6667 66.4731 34.99 66.4731 34.234C66.4731 33.4873 66.6411 32.82 66.9771 32.232C67.3131 31.644 67.7658 31.182 68.3351 30.846C68.9138 30.5007 69.5671 30.328 70.2951 30.328C71.0231 30.328 71.6718 30.496 72.2411 30.832C72.8198 31.168 73.2725 31.63 73.5991 32.218C73.9351 32.806 74.1031 33.478 74.1031 34.234C74.1031 34.9993 73.9305 35.6807 73.5851 36.278C73.2398 36.866 72.7778 37.328 72.1991 37.664C71.6298 38 70.9951 38.168 70.2951 38.168ZM70.2951 37.118C70.7991 37.118 71.2518 36.992 71.6531 36.74C72.0638 36.488 72.3858 36.1427 72.6191 35.704C72.8618 35.2653 72.9831 34.7753 72.9831 34.234C72.9831 33.6927 72.8618 33.2073 72.6191 32.778C72.3858 32.3487 72.0638 32.008 71.6531 31.756C71.2518 31.504 70.7991 31.378 70.2951 31.378C69.7911 31.378 69.3338 31.504 68.9231 31.756C68.5218 32.008 68.1998 32.3487 67.9571 32.778C67.7145 33.2073 67.5931 33.6927 67.5931 34.234C67.5931 34.7753 67.7145 35.2653 67.9571 35.704C68.1998 36.1427 68.5218 36.488 68.9231 36.74C69.3338 36.992 69.7911 37.118 70.2951 37.118ZM79.343 38.168C78.643 38.168 78.013 38 77.453 37.664C76.893 37.3187 76.4496 36.852 76.123 36.264C75.8056 35.6667 75.647 34.9947 75.647 34.248C75.647 33.492 75.8056 32.82 76.123 32.232C76.4496 31.644 76.8883 31.182 77.439 30.846C77.999 30.5007 78.6336 30.328 79.343 30.328C79.987 30.328 80.561 30.468 81.065 30.748C81.569 31.028 81.9656 31.406 82.255 31.882L82.087 32.176V27.402H83.137V38H82.087V36.32L82.255 36.474C81.9936 37.0153 81.6016 37.4353 81.079 37.734C80.5656 38.0233 79.987 38.168 79.343 38.168ZM79.399 37.118C79.903 37.118 80.3556 36.992 80.757 36.74C81.1676 36.488 81.4896 36.1473 81.723 35.718C81.9656 35.2793 82.087 34.7893 82.087 34.248C82.087 33.7067 81.9656 33.2213 81.723 32.792C81.4896 32.3533 81.1676 32.008 80.757 31.756C80.3556 31.504 79.903 31.378 79.399 31.378C78.9043 31.378 78.4563 31.504 78.055 31.756C77.6536 32.008 77.3363 32.3487 77.103 32.778C76.879 33.2073 76.767 33.6973 76.767 34.248C76.767 34.7893 76.879 35.2793 77.103 35.718C77.3363 36.1473 77.649 36.488 78.041 36.74C78.4423 36.992 78.895 37.118 79.399 37.118ZM88.7088 38.168C88.0088 38.168 87.3742 38 86.8048 37.664C86.2448 37.3187 85.8015 36.8473 85.4748 36.25C85.1482 35.6527 84.9848 34.976 84.9848 34.22C84.9848 33.464 85.1435 32.7967 85.4608 32.218C85.7782 31.63 86.2075 31.168 86.7488 30.832C87.2995 30.496 87.9155 30.328 88.5968 30.328C89.1382 30.328 89.6188 30.4307 90.0388 30.636C90.4682 30.832 90.8322 31.1027 91.1308 31.448C91.4295 31.784 91.6582 32.1667 91.8168 32.596C91.9755 33.016 92.0548 33.45 92.0548 33.898C92.0548 33.9913 92.0502 34.0987 92.0408 34.22C92.0315 34.332 92.0175 34.4487 91.9988 34.57H85.6568V33.59H91.3968L90.8928 34.01C90.9768 33.4967 90.9162 33.0393 90.7108 32.638C90.5148 32.2273 90.2302 31.9053 89.8568 31.672C89.4835 31.4293 89.0635 31.308 88.5968 31.308C88.1302 31.308 87.6962 31.4293 87.2948 31.672C86.9028 31.9147 86.5948 32.2553 86.3708 32.694C86.1468 33.1233 86.0582 33.6367 86.1048 34.234C86.0582 34.8313 86.1515 35.354 86.3848 35.802C86.6275 36.2407 86.9542 36.5813 87.3648 36.824C87.7848 37.0667 88.2328 37.188 88.7088 37.188C89.2595 37.188 89.7215 37.0573 90.0948 36.796C90.4682 36.5347 90.7715 36.208 91.0048 35.816L91.9008 36.292C91.7515 36.628 91.5228 36.9407 91.2148 37.23C90.9068 37.51 90.5382 37.7387 90.1088 37.916C89.6888 38.084 89.2222 38.168 88.7088 38.168Z" fill="#393939"/>
<circle cx="23" cy="23" r="22.5" fill="#F9F9F9" stroke="#259F00"/>
<g clip-path="url(#clip0_490_677)">
<path d="M29.7474 13.8331C29.0019 13.8331 28.2853 14.0011 27.6364 14.3189C27.0995 13.436 26.3452 12.7056 25.4454 12.1975C24.5457 11.6894 23.5307 11.4205 22.4974 11.4166C21.4641 11.4205 20.4491 11.6894 19.5493 12.1975C18.6496 12.7056 17.8953 13.436 17.3584 14.3189C16.6214 13.9625 15.8061 13.799 14.9887 13.8436C14.1714 13.8882 13.3787 14.1394 12.6849 14.5738C11.991 15.0081 11.4188 15.6114 11.0216 16.3272C10.6245 17.0429 10.4154 17.8477 10.4141 18.6663C10.4159 19.7374 10.7726 20.7778 11.4285 21.6247C12.0843 22.4716 13.0024 23.0774 14.0391 23.3472V34.3739C14.0391 34.6944 14.1664 35.0017 14.393 35.2283C14.6196 35.4549 14.9269 35.5822 15.2474 35.5822H29.7474C30.0679 35.5822 30.3752 35.4549 30.6018 35.2283C30.8284 35.0017 30.9557 34.6944 30.9557 34.3739V23.3472C31.9924 23.0774 32.9105 22.4716 33.5663 21.6247C34.2222 20.7778 34.5789 19.7374 34.5807 18.6663C34.5807 16.0008 32.413 13.8331 29.7474 13.8331ZM16.4557 33.1657V31.9574H28.5391V33.1657H16.4557ZM29.7474 21.0828C29.4269 21.0828 29.1196 21.2101 28.893 21.4367C28.6664 21.6633 28.5391 21.9707 28.5391 22.2911V29.5408H27.3307V25.916H24.9141V29.5408H23.7057V24.7077H21.2891V29.5408H20.0807V25.916H17.6641V29.5408H16.4557V22.2911C16.4557 21.9707 16.3284 21.6633 16.1018 21.4367C15.8752 21.2101 15.5679 21.0828 15.2474 21.0828C13.9146 21.0828 12.8307 19.999 12.8307 18.6663C12.8307 17.3323 13.9146 16.2497 15.2474 16.2497C15.9071 16.2497 16.5258 16.5155 16.9874 17C17.1351 17.1538 17.3208 17.2659 17.5258 17.3248C17.7307 17.3838 17.9475 17.3876 18.1544 17.3359C18.3613 17.2841 18.5508 17.1787 18.7038 17.0302C18.8569 16.8817 18.9679 16.6954 19.0259 16.4901C19.2365 15.7298 19.6895 15.059 20.316 14.5795C20.9425 14.0999 21.7084 13.8379 22.4974 13.8331C24.1057 13.8331 25.5327 14.9254 25.9701 16.4901C26.0281 16.6954 26.1391 16.8817 26.2922 17.0302C26.4452 17.1787 26.6347 17.2841 26.8416 17.3359C27.0485 17.3876 27.2653 17.3838 27.4702 17.3248C27.6752 17.2659 27.8609 17.1538 28.0086 17C28.2317 16.7627 28.5011 16.5736 28.8002 16.4445C29.0993 16.3155 29.4216 16.2491 29.7474 16.2497C31.0802 16.2497 32.1641 17.3323 32.1641 18.6663C32.1641 19.999 31.0802 21.0828 29.7474 21.0828Z" fill="#259F00"/>
</g>
<defs>
<clipPath id="clip0_490_677">
<rect width="29" height="29" fill="white" transform="translate(8 9)"/>
</clipPath>
</defs>
</svg>
