<svg width="62" height="62" viewBox="0 0 62 62" fill="none" xmlns="http://www.w3.org/2000/svg">
<path d="M28.4167 56.1357C29.2021 56.5892 30.0931 56.828 31 56.828C31.9069 56.828 32.7979 56.5892 33.5833 56.1357L51.6667 45.8024C52.4513 45.3494 53.1031 44.698 53.5565 43.9136C54.0099 43.1292 54.2491 42.2393 54.25 41.3332V20.6666C54.2491 19.7605 54.0099 18.8707 53.5565 18.0862C53.1031 17.3018 52.4513 16.6504 51.6667 16.1974L33.5833 5.86408C32.7979 5.41061 31.9069 5.17188 31 5.17188C30.0931 5.17188 29.2021 5.41061 28.4167 5.86408L10.3333 16.1974C9.54868 16.6504 8.89695 17.3018 8.44353 18.0862C7.9901 18.8707 7.75093 19.7605 7.75 20.6666V41.3332C7.75093 42.2393 7.9901 43.1292 8.44353 43.9136C8.89695 44.698 9.54868 45.3494 10.3333 45.8024L28.4167 56.1357Z" stroke="#259F00" stroke-width="5" stroke-linecap="round" stroke-linejoin="round"/>
<path d="M31 56.8333V31" stroke="#259F00" stroke-width="5" stroke-linecap="round" stroke-linejoin="round"/>
<path d="M8.5 18.0835L31.0008 31.0002L53.5017 18.0835" stroke="#259F00" stroke-width="5" stroke-linecap="round" stroke-linejoin="round"/>
<path d="M19.375 11.0308L42.625 24.3349" stroke="#259F00" stroke-width="5" stroke-linecap="round" stroke-linejoin="round"/>
</svg>
