<svg width="80" height="80" viewBox="0 0 80 80" fill="none" xmlns="http://www.w3.org/2000/svg">
<circle cx="40" cy="40" r="40" fill="#EDF7EE"/>
<path d="M43.3359 50V30C43.3359 29.1159 42.9847 28.2681 42.3596 27.643C41.7345 27.0179 40.8867 26.6667 40.0026 26.6667H26.6693C25.7852 26.6667 24.9374 27.0179 24.3122 27.643C23.6871 28.2681 23.3359 29.1159 23.3359 30V48.3333C23.3359 48.7754 23.5115 49.1993 23.8241 49.5118C24.1367 49.8244 24.5606 50 25.0026 50H28.3359" stroke="#259F00" stroke-width="3" stroke-linecap="round" stroke-linejoin="round"/>
<path d="M45 50H35" stroke="#259F00" stroke-width="3" stroke-linecap="round" stroke-linejoin="round"/>
<path d="M51.6693 50H55.0026C55.4446 50 55.8686 49.8244 56.1811 49.5119C56.4937 49.1993 56.6693 48.7754 56.6693 48.3333V42.25C56.6686 41.8718 56.5393 41.505 56.3026 41.21L50.5026 33.96C50.3467 33.7648 50.149 33.6071 49.9239 33.4987C49.6989 33.3902 49.4524 33.3337 49.2026 33.3333H43.3359" stroke="#259F00" stroke-width="3" stroke-linecap="round" stroke-linejoin="round"/>
<path d="M48.3333 53.9785C50.1743 53.9785 51.6667 52.4861 51.6667 50.6452C51.6667 48.8042 50.1743 47.3118 48.3333 47.3118C46.4924 47.3118 45 48.8042 45 50.6452C45 52.4861 46.4924 53.9785 48.3333 53.9785Z" stroke="#259F00" stroke-width="3" stroke-linecap="round" stroke-linejoin="round"/>
<path d="M31.6693 53.9785C33.5102 53.9785 35.0026 52.4861 35.0026 50.6452C35.0026 48.8042 33.5102 47.3118 31.6693 47.3118C29.8283 47.3118 28.3359 48.8042 28.3359 50.6452C28.3359 52.4861 29.8283 53.9785 31.6693 53.9785Z" stroke="#259F00" stroke-width="3" stroke-linecap="round" stroke-linejoin="round"/>
</svg>
