<svg width="46" height="46" viewBox="0 0 46 46" fill="none" xmlns="http://www.w3.org/2000/svg">
<circle cx="23" cy="23" r="22.5" fill="#F9F9F9" stroke="#259F00"/>
<g clip-path="url(#clip0_577_657)">
<path d="M29.7474 13.8331C29.0019 13.8331 28.2853 14.0011 27.6364 14.3189C27.0995 13.436 26.3452 12.7056 25.4454 12.1975C24.5457 11.6894 23.5307 11.4205 22.4974 11.4166C21.4641 11.4205 20.4491 11.6894 19.5493 12.1975C18.6496 12.7056 17.8953 13.436 17.3584 14.3189C16.6214 13.9625 15.8061 13.799 14.9887 13.8436C14.1714 13.8882 13.3787 14.1394 12.6849 14.5738C11.991 15.0081 11.4188 15.6114 11.0216 16.3272C10.6245 17.0429 10.4154 17.8477 10.4141 18.6663C10.4159 19.7374 10.7726 20.7778 11.4285 21.6247C12.0843 22.4716 13.0024 23.0774 14.0391 23.3472V34.3739C14.0391 34.6944 14.1664 35.0017 14.393 35.2283C14.6196 35.4549 14.9269 35.5822 15.2474 35.5822H29.7474C30.0679 35.5822 30.3752 35.4549 30.6018 35.2283C30.8284 35.0017 30.9557 34.6944 30.9557 34.3739V23.3472C31.9924 23.0774 32.9105 22.4716 33.5663 21.6247C34.2222 20.7778 34.5789 19.7374 34.5807 18.6663C34.5807 16.0008 32.413 13.8331 29.7474 13.8331ZM16.4557 33.1657V31.9574H28.5391V33.1657H16.4557ZM29.7474 21.0828C29.4269 21.0828 29.1196 21.2101 28.893 21.4367C28.6664 21.6633 28.5391 21.9707 28.5391 22.2911V29.5408H27.3307V25.916H24.9141V29.5408H23.7057V24.7077H21.2891V29.5408H20.0807V25.916H17.6641V29.5408H16.4557V22.2911C16.4557 21.9707 16.3284 21.6633 16.1018 21.4367C15.8752 21.2101 15.5679 21.0828 15.2474 21.0828C13.9146 21.0828 12.8307 19.999 12.8307 18.6663C12.8307 17.3323 13.9146 16.2497 15.2474 16.2497C15.9071 16.2497 16.5258 16.5155 16.9874 17C17.1351 17.1538 17.3208 17.2659 17.5258 17.3248C17.7307 17.3838 17.9475 17.3876 18.1544 17.3359C18.3613 17.2841 18.5508 17.1787 18.7038 17.0302C18.8569 16.8817 18.9679 16.6954 19.0259 16.4901C19.2365 15.7298 19.6895 15.059 20.316 14.5795C20.9425 14.0999 21.7084 13.8379 22.4974 13.8331C24.1057 13.8331 25.5327 14.9254 25.9701 16.4901C26.0281 16.6954 26.1391 16.8817 26.2922 17.0302C26.4452 17.1787 26.6347 17.2841 26.8416 17.3359C27.0485 17.3876 27.2653 17.3838 27.4702 17.3248C27.6752 17.2659 27.8609 17.1538 28.0086 17C28.2317 16.7627 28.5011 16.5736 28.8002 16.4445C29.0993 16.3155 29.4216 16.2491 29.7474 16.2497C31.0802 16.2497 32.1641 17.3323 32.1641 18.6663C32.1641 19.999 31.0802 21.0828 29.7474 21.0828Z" fill="#259F00"/>
</g>
<defs>
<clipPath id="clip0_577_657">
<rect width="29" height="29" fill="white" transform="translate(8 9)"/>
</clipPath>
</defs>
</svg>
