<svg width="80" height="80" viewBox="0 0 80 80" fill="none" xmlns="http://www.w3.org/2000/svg">
<circle cx="40" cy="40" r="40" fill="#EDF7EE"/>
<path d="M49.3254 41.28C49.9506 41.9052 50.7986 42.2565 51.6829 42.2565C52.5671 42.2565 53.4151 41.9052 54.0404 41.28C54.6656 40.6547 55.0169 39.8067 55.0169 38.9225C55.0169 38.0383 54.6656 37.1902 54.0404 36.565L51.0937 33.62C51.7189 34.245 52.5669 34.5961 53.451 34.5959C53.8887 34.5958 54.3222 34.5095 54.7266 34.3419C55.131 34.1744 55.4984 33.9287 55.8079 33.6192C56.1173 33.3096 56.3628 32.942 56.5303 32.5376C56.6977 32.1331 56.7839 31.6997 56.7838 31.2619C56.7837 30.8242 56.6974 30.3907 56.5298 29.9863C56.3622 29.5819 56.1166 29.2145 55.807 28.905L51.0937 24.1917C50.4687 23.5664 49.6209 23.2151 48.7368 23.2149C47.8527 23.2147 47.0048 23.5658 46.3795 24.1908C45.7543 24.8159 45.4029 25.6637 45.4028 26.5477C45.4026 27.4318 45.7537 28.2797 46.3787 28.905L43.4337 25.9583C43.1241 25.6487 42.7566 25.4032 42.3521 25.2356C41.9476 25.0681 41.514 24.9818 41.0762 24.9818C40.6384 24.9818 40.2048 25.0681 39.8003 25.2356C39.3958 25.4032 39.0283 25.6487 38.7187 25.9583C38.4091 26.2679 38.1635 26.6355 37.996 27.04C37.8284 27.4445 37.7422 27.878 37.7422 28.3158C37.7422 28.7537 37.8284 29.1872 37.996 29.5917C38.1635 29.9962 38.4091 30.3637 38.7187 30.6733L49.3254 41.28Z" stroke="#259F00" stroke-width="3" stroke-linecap="round" stroke-linejoin="round"/>
<path d="M24.168 55.8333L26.5013 53.5" stroke="#259F00" stroke-width="3" stroke-linecap="round" stroke-linejoin="round"/>
<path d="M53.5 26.5L55.8333 24.1667" stroke="#259F00" stroke-width="3" stroke-linecap="round" stroke-linejoin="round"/>
<path d="M28.9049 55.8083C29.53 56.4336 30.3778 56.7849 31.2618 56.7851C31.6996 56.7851 32.1331 56.699 32.5375 56.5315C32.942 56.3641 33.3095 56.1186 33.6191 55.8091C33.9287 55.4997 34.1743 55.1322 34.3419 54.7278C34.5095 54.3234 34.5958 53.89 34.5958 53.4522C34.5959 53.0145 34.5098 52.581 34.3423 52.1765C34.1749 51.7721 33.9294 51.4046 33.6199 51.095L36.5649 54.0416C37.1902 54.6669 38.0382 55.0182 38.9224 55.0182C39.8067 55.0182 40.6547 54.6669 41.2799 54.0416C41.9052 53.4164 42.2564 52.5684 42.2564 51.6841C42.2564 50.7999 41.9052 49.9519 41.2799 49.3266L30.6733 38.72C30.3637 38.4104 29.9961 38.1648 29.5916 37.9973C29.1871 37.8297 28.7536 37.7435 28.3158 37.7435C27.8779 37.7435 27.4444 37.8297 27.0399 37.9973C26.6354 38.1648 26.2679 38.4104 25.9583 38.72C25.6487 39.0296 25.4031 39.3971 25.2355 39.8016C25.068 40.2061 24.9818 40.6396 24.9818 41.0775C24.9818 41.5153 25.068 41.9488 25.2355 42.3533C25.4031 42.7578 25.6487 43.1254 25.9583 43.435L28.9049 46.38C28.2797 45.755 27.4318 45.4039 26.5477 45.4041C25.6636 45.4042 24.8158 45.7556 24.1908 46.3808C23.5657 47.0061 23.2147 47.854 23.2148 48.7381C23.215 49.6221 23.5663 50.47 24.1916 51.095L28.9049 55.8083Z" stroke="#259F00" stroke-width="3" stroke-linecap="round" stroke-linejoin="round"/>
<path d="M36 44L44 36" stroke="#259F00" stroke-width="3" stroke-linecap="round" stroke-linejoin="round"/>
</svg>
