<svg width="40" height="40" viewBox="0 0 40 40" fill="none" xmlns="http://www.w3.org/2000/svg">
<path d="M20 35C23.9782 35 27.7936 33.4196 30.6066 30.6066C33.4196 27.7936 35 23.9782 35 20H5C5 23.9782 6.58035 27.7936 9.3934 30.6066C12.2064 33.4196 16.0218 35 20 35Z" stroke="#259F00" stroke-width="3" stroke-linecap="round" stroke-linejoin="round"/>
<path d="M11.668 35H28.3346" stroke="#259F00" stroke-width="3" stroke-linecap="round" stroke-linejoin="round"/>
<path d="M32.5 20L36.6667 10" stroke="#259F00" stroke-width="3" stroke-linecap="round" stroke-linejoin="round"/>
<path d="M27.0841 5C27.5341 5.16667 28.4174 5.88333 28.3341 7.26667C28.2341 8.65 26.7841 9.26667 26.6674 10.6333C26.5841 11.9333 27.2341 12.7 27.8841 13.3333" stroke="#259F00" stroke-width="3" stroke-linecap="round" stroke-linejoin="round"/>
<path d="M18.7501 5C19.2001 5.16667 20.0834 5.88333 19.9834 7.26667C19.9001 8.65 18.4334 9.26667 18.3501 10.6333C18.2501 11.9333 18.9001 12.7 19.5501 13.3333" stroke="#259F00" stroke-width="3" stroke-linecap="round" stroke-linejoin="round"/>
<path d="M10.4161 5C10.8661 5.16667 11.7494 5.88333 11.6661 7.26667C11.5661 8.65 10.1161 9.26667 9.99943 10.6333C9.91609 11.9333 10.5661 12.7 11.2328 13.3333" stroke="#259F00" stroke-width="3" stroke-linecap="round" stroke-linejoin="round"/>
</svg>
