<svg width="80" height="80" viewBox="0 0 80 80" fill="none" xmlns="http://www.w3.org/2000/svg">
<circle cx="40" cy="40" r="40" fill="#EDF7EE"/>
<path d="M40 55C43.9782 55 47.7936 53.4196 50.6066 50.6066C53.4196 47.7936 55 43.9782 55 40H25C25 43.9782 26.5804 47.7936 29.3934 50.6066C32.2064 53.4196 36.0218 55 40 55Z" stroke="#259F00" stroke-width="3" stroke-linecap="round" stroke-linejoin="round"/>
<path d="M31.668 55H48.3346" stroke="#259F00" stroke-width="3" stroke-linecap="round" stroke-linejoin="round"/>
<path d="M52.5 40L56.6667 30" stroke="#259F00" stroke-width="3" stroke-linecap="round" stroke-linejoin="round"/>
<path d="M47.0841 25C47.5341 25.1667 48.4174 25.8833 48.3341 27.2667C48.2341 28.65 46.7841 29.2667 46.6674 30.6333C46.5841 31.9333 47.2341 32.7 47.8841 33.3333" stroke="#259F00" stroke-width="3" stroke-linecap="round" stroke-linejoin="round"/>
<path d="M38.7501 25C39.2001 25.1667 40.0834 25.8833 39.9834 27.2667C39.9001 28.65 38.4334 29.2667 38.3501 30.6333C38.2501 31.9333 38.9001 32.7 39.5501 33.3333" stroke="#259F00" stroke-width="3" stroke-linecap="round" stroke-linejoin="round"/>
<path d="M30.4161 25C30.8661 25.1667 31.7494 25.8833 31.6661 27.2667C31.5661 28.65 30.1161 29.2667 29.9994 30.6333C29.9161 31.9333 30.5661 32.7 31.2328 33.3333" stroke="#259F00" stroke-width="3" stroke-linecap="round" stroke-linejoin="round"/>
</svg>
