<svg width="40" height="40" viewBox="0 0 40 40" fill="none" xmlns="http://www.w3.org/2000/svg">
<circle cx="20" cy="20" r="20" fill="#259F00"/>
<path d="M22.8495 27.3332C21.1 28.2307 19.0874 28.4738 17.1745 28.0187C15.2616 27.5636 13.5741 26.4402 12.4162 24.851C11.2583 23.2619 10.706 21.3114 10.8589 19.351C11.0119 17.3907 11.8599 15.5494 13.2503 14.1591C14.6407 12.7687 16.482 11.9206 18.4423 11.7677C20.4026 11.6147 22.3531 12.167 23.9423 13.3249C25.5315 14.4829 26.6548 16.1703 27.1099 18.0832C27.565 19.9961 27.3219 22.0087 26.4245 23.7582L28.2578 29.1665L22.8495 27.3332Z" stroke="white" stroke-width="1.8" stroke-linecap="round" stroke-linejoin="round"/>
<path d="M16.4141 17.25C16.6296 16.6374 17.055 16.1208 17.6149 15.7917C18.1748 15.4627 18.8331 15.3424 19.4731 15.4522C20.1132 15.562 20.6938 15.8948 21.112 16.3916C21.5303 16.8884 21.7592 17.5173 21.7582 18.1667C21.7582 20 19.0082 20.9167 19.0082 20.9167" stroke="white" stroke-width="1.8" stroke-linecap="round" stroke-linejoin="round"/>
<path d="M19.082 24.5835H19.0922" stroke="white" stroke-width="1.8" stroke-linecap="round" stroke-linejoin="round"/>
</svg>
